<svg width="163" height="156" viewBox="0 0 163 156" fill="none" xmlns="http://www.w3.org/2000/svg">
<rect width="163" height="156" rx="20" fill="white" fill-opacity="0.11"/>
<ellipse cx="81.5" cy="78" rx="52.5" ry="55" fill="#6D30ED"/>
<path d="M81.5 116C101.658 116 118 98.9868 118 78C118 57.0132 101.658 40 81.5 40C61.3416 40 45 57.0132 45 78C45 98.9868 61.3416 116 81.5 116Z" fill="url(#paint0_linear)"/>
<path d="M81.5 115.37C101.324 115.37 117.395 98.639 117.395 78C117.395 57.361 101.324 40.6298 81.5 40.6298C61.6757 40.6298 45.605 57.361 45.605 78C45.605 98.639 61.6757 115.37 81.5 115.37Z" fill="#38365E"/>
<path d="M81.4999 107.707C97.259 107.707 110.034 94.4068 110.034 78C110.034 61.5932 97.259 48.2928 81.4999 48.2928C65.7407 48.2928 52.9653 61.5932 52.9653 78C52.9653 94.4068 65.7407 107.707 81.4999 107.707Z" fill="#DDE1EC"/>
<path opacity="0.3" d="M82.3066 53.5414H80.6934V79.7845H82.3066V53.5414Z" fill="#535461"/>
<g opacity="0.1">
<path opacity="0.1" d="M106.002 77.3702H83.2144V79.4696H106.002V77.3702Z" fill="black"/>
<path opacity="0.1" d="M67.1264 69.5155L66.1909 71.3754L80.5289 79.1924L81.4644 77.3325L67.1264 69.5155Z" fill="black"/>
<path opacity="0.1" d="M81.5004 81.5691C83.171 81.5691 84.5253 80.1591 84.5253 78.4199C84.5253 76.6806 83.171 75.2707 81.5004 75.2707C79.8299 75.2707 78.4756 76.6806 78.4756 78.4199C78.4756 80.1591 79.8299 81.5691 81.5004 81.5691Z" fill="black"/>
</g>
<path d="M106.002 76.9503H83.2144V79.0497H106.002V76.9503Z" fill="#535461"/>
<path d="M81.4703 76.9151L67.1323 69.098L66.1968 70.9579L80.5348 78.7749L81.4703 76.9151Z" fill="#535461"/>
<path d="M81.5 81.1492C83.1705 81.1492 84.5248 79.7392 84.5248 78C84.5248 76.2608 83.1705 74.8508 81.5 74.8508C79.8294 74.8508 78.4751 76.2608 78.4751 78C78.4751 79.7392 79.8294 81.1492 81.5 81.1492Z" fill="#535461"/>
<g opacity="0.1">
<path opacity="0.1" d="M55.1821 81.5691C55.1821 65.1619 67.9571 51.8619 83.7167 51.8619C88.14 51.8578 92.5034 52.9261 96.4614 54.982C100.419 57.038 103.863 60.0251 106.52 63.707C101.664 54.5198 92.2871 48.2928 81.4984 48.2928C65.7389 48.2928 52.9639 61.5928 52.9639 78C52.9546 84.4455 54.9681 90.7177 58.698 95.8621C56.3849 91.4835 55.1753 86.5662 55.1821 81.5691V81.5691Z" fill="black"/>
</g>
<defs>
<linearGradient id="paint0_linear" x1="81.5" y1="116" x2="81.5" y2="40" gradientUnits="userSpaceOnUse">
<stop stop-color="#808080" stop-opacity="0.25"/>
<stop offset="0.54" stop-color="#808080" stop-opacity="0.12"/>
<stop offset="1" stop-color="#808080" stop-opacity="0.1"/>
</linearGradient>
</defs>
</svg>
