<svg width="163" height="156" viewBox="0 0 163 156" fill="none" xmlns="http://www.w3.org/2000/svg">
<rect width="163" height="156" rx="20" fill="white" fill-opacity="0.11"/>
<ellipse cx="81.5" cy="78" rx="52.5" ry="55" fill="#6D30ED"/>
<path d="M83.1697 126.924C90.238 126.924 95.968 123.324 95.968 118.885C95.968 114.445 90.238 110.846 83.1697 110.846C76.1014 110.846 70.3713 114.445 70.3713 118.885C70.3713 123.324 76.1014 126.924 83.1697 126.924Z" fill="#38365E"/>
<path d="M81.7988 35.0006C61.7967 35.0894 45.4192 45.2992 45.135 57.862C45.1324 57.978 45.1312 58.7936 45.1314 59.8603C45.1315 61.4243 46.1207 62.9242 47.8813 64.0302C49.6419 65.1361 52.0298 65.7575 54.5197 65.7577H54.5198C55.7541 65.7575 56.9762 65.6046 58.1164 65.3076C59.2566 65.0107 60.2924 64.5755 61.1648 64.027C62.0371 63.4785 62.7288 62.8273 63.2003 62.1108C63.6719 61.3944 63.914 60.6265 63.913 59.8512C63.912 59.1256 63.9114 58.6234 63.9114 58.5926C63.9108 56.651 64.7148 54.7427 66.2444 53.0556C67.774 51.3684 69.9765 49.9603 72.6352 48.97C75.2939 47.9796 78.3173 47.441 81.4079 47.4072C84.4985 47.3734 87.5498 47.8456 90.2618 48.7772C92.9739 49.7088 95.253 51.0678 96.8752 52.7205C98.4974 54.3732 99.4068 56.2627 99.5138 58.2031C99.6208 60.1435 98.9217 62.068 97.4854 63.7872C96.0492 65.5065 93.9251 66.9613 91.3222 68.0085L91.3255 68.011C91.3255 68.011 77.9628 73.4145 73.8889 80.8271L73.8923 80.8276C73.176 82.3461 72.813 83.9217 72.8146 85.5055C72.8146 86.1566 72.8756 91.853 72.9934 96.4765C73.0346 98.0718 74.0726 99.593 75.8834 100.712C77.6943 101.831 80.1328 102.458 82.6729 102.457H82.6729C83.9492 102.457 85.213 102.299 86.3914 101.991C87.5698 101.683 88.6396 101.231 89.5393 100.663C90.439 100.094 91.1508 99.4194 91.6338 98.6773C92.1167 97.9352 92.3613 97.1405 92.3534 96.3388C92.3125 92.1045 92.2904 87.1741 92.2904 86.8162C92.2904 82.2647 99.2808 77.7297 105.023 74.7723C111.635 71.3667 116.393 66.7258 118.305 61.4907C118.728 60.4129 118.961 59.3091 119 58.1993C119 55.1387 118.036 52.1082 116.163 49.2826C114.29 46.4571 111.546 43.8922 108.088 41.7358C104.63 39.5794 100.527 37.8741 96.0147 36.7182C91.5028 35.5622 86.6714 34.9785 81.7988 35.0006V35.0006Z" fill="#38365E"/>
<path d="M57.1707 62.9683C54.6807 62.9681 52.2928 62.3467 50.5322 61.2407C48.7716 60.1348 47.7824 58.6348 47.7823 57.0708C47.7821 56.0041 47.7833 55.1886 47.7859 55.0726C47.865 51.4189 49.33 47.8298 52.0592 44.6029C47.5752 48.4586 45.1096 53.0943 45.0037 57.8687C45.0011 57.9847 44.9999 58.8003 45 59.867C45.0002 61.431 45.9893 62.9309 47.75 64.0369C49.5106 65.1428 51.8985 65.7642 54.3885 65.7644V65.7644C56.4345 65.7639 58.4245 65.344 60.0559 64.5683C61.6873 63.7927 62.8711 62.7037 63.4274 61.467C61.7083 62.4353 59.4798 62.97 57.1707 62.9683V62.9683Z" fill="#3F3D56"/>
<path d="M82.4352 47.427C85.3138 47.5134 88.116 48.0373 90.6012 48.9537C93.0865 49.8702 95.1804 51.1518 96.7034 52.6885C98.2264 54.2253 99.1328 55.9712 99.3449 57.7765C99.557 59.5817 99.0684 61.3923 97.921 63.0528C99.5806 61.8286 100.8 60.3939 101.497 58.8467C102.194 57.2995 102.352 55.6761 101.959 54.0872C101.567 52.4983 100.633 50.9812 99.2227 49.6394C97.8121 48.2976 95.9575 47.1626 93.7853 46.3119C91.6131 45.4611 89.1743 44.9145 86.6354 44.7094C84.0964 44.5043 81.5168 44.6455 79.0726 45.1233C76.6283 45.6012 74.3769 46.4044 72.4717 47.4784C70.5665 48.5523 69.0523 49.8717 68.0325 51.3465C69.7951 50.0441 72.0104 49.0134 74.5076 48.3338C77.0047 47.6542 79.717 47.344 82.4352 47.427V47.427Z" fill="#3F3D56"/>
<path d="M85.3236 99.6678C82.7835 99.6681 80.345 99.0413 78.5342 97.9224C76.7233 96.8035 75.6854 95.2824 75.6441 93.6871C75.5264 89.0636 75.4654 83.3671 75.4654 82.7161C75.4637 81.1323 75.8267 79.5567 76.5431 78.0382L76.5397 78.0376C76.9627 77.2754 77.4736 76.5336 78.0683 75.818C76.2427 77.3462 74.7898 79.0366 73.7574 80.8338L73.7608 80.8343C73.0445 82.3528 72.6815 83.9285 72.6831 85.5123C72.6831 86.1633 72.7441 91.8598 72.8619 96.4833C72.9031 98.0785 73.9411 99.5997 75.7519 100.719C77.5627 101.837 80.0012 102.464 82.5413 102.464V102.464C84.6357 102.464 86.6735 102.037 88.349 101.248C90.0246 100.458 91.2476 99.3493 91.8346 98.0865C90.0548 99.1058 87.7321 99.6699 85.3236 99.6678V99.6678Z" fill="#3F3D56"/>
<path d="M80.3501 124.963C78.532 124.465 76.9228 123.709 75.6495 122.755C74.3763 121.8 73.4737 120.672 73.0132 119.46C72.5526 118.249 72.5466 116.987 72.9956 115.773C73.4447 114.56 74.3365 113.429 75.6007 112.469C74.135 113.142 72.9136 114.002 72.0177 114.993C71.1218 115.985 70.5718 117.084 70.4043 118.219C70.2367 119.354 70.4554 120.499 71.0459 121.577C71.6363 122.655 72.585 123.641 73.829 124.472C75.073 125.302 76.5838 125.956 78.2611 126.391C79.9385 126.826 81.744 127.032 83.5579 126.996C85.3718 126.959 87.1526 126.681 88.782 126.179C90.4114 125.677 91.8523 124.963 93.0089 124.085C91.2049 124.913 89.0869 125.43 86.8659 125.584C84.6449 125.738 82.3983 125.524 80.3501 124.963V124.963Z" fill="#3F3D56"/>
</svg>
