<svg width="176" height="161" viewBox="0 0 176 161" fill="none" xmlns="http://www.w3.org/2000/svg">
<rect y="5" width="163" height="156" rx="20" fill="white" fill-opacity="0.11"/>
<ellipse cx="81.5" cy="83" rx="52.5" ry="55" fill="#6D30ED"/>
<mask id="path-3-outside-1" maskUnits="userSpaceOnUse" x="51.6865" y="42.5638" width="60" height="81" fill="black">
<rect fill="white" x="51.6865" y="42.5638" width="60" height="81"/>
<path d="M54.2674 44.0739C53.7847 44.3835 53.3858 44.8182 53.109 45.3362C52.8322 45.8543 52.6867 46.4385 52.6865 47.0326V47.5427H53.0749V47.0326C53.0757 46.3578 53.2883 45.7022 53.6798 45.1673C54.0713 44.6323 54.6198 44.248 55.2403 44.0739H54.2674ZM101.953 43.5638H55.988C55.1127 43.5649 54.2736 43.9307 53.6546 44.581C53.0357 45.2313 52.6876 46.113 52.6865 47.0326V118.245C52.6878 119.164 53.036 120.046 53.6549 120.696C54.2738 121.346 55.1128 121.712 55.988 121.713H107.064C107.94 121.712 108.779 121.346 109.398 120.696C110.017 120.046 110.365 119.164 110.366 118.245V51.4563L101.953 43.5638ZM109.978 118.245C109.977 119.056 109.669 119.834 109.123 120.408C108.577 120.982 107.837 121.304 107.064 121.305H55.988C55.2157 121.304 54.4753 120.982 53.9292 120.408C53.3831 119.834 53.0759 119.056 53.0749 118.245V47.0326C53.0757 46.3578 53.2883 45.7022 53.6798 45.1673C54.0713 44.6323 54.6198 44.248 55.2403 44.0739C55.4842 44.0057 55.7356 43.9714 55.988 43.9719H101.805L109.978 51.6379V118.245ZM54.2674 44.0739C53.7847 44.3835 53.3858 44.8182 53.109 45.3362C52.8322 45.8543 52.6867 46.4385 52.6865 47.0326V47.5427H53.0749V47.0326C53.0757 46.3578 53.2883 45.7022 53.6798 45.1673C54.0713 44.6323 54.6198 44.248 55.2403 44.0739H54.2674Z"/>
</mask>
<path d="M54.2674 44.0739C53.7847 44.3835 53.3858 44.8182 53.109 45.3362C52.8322 45.8543 52.6867 46.4385 52.6865 47.0326V47.5427H53.0749V47.0326C53.0757 46.3578 53.2883 45.7022 53.6798 45.1673C54.0713 44.6323 54.6198 44.248 55.2403 44.0739H54.2674ZM101.953 43.5638H55.988C55.1127 43.5649 54.2736 43.9307 53.6546 44.581C53.0357 45.2313 52.6876 46.113 52.6865 47.0326V118.245C52.6878 119.164 53.036 120.046 53.6549 120.696C54.2738 121.346 55.1128 121.712 55.988 121.713H107.064C107.94 121.712 108.779 121.346 109.398 120.696C110.017 120.046 110.365 119.164 110.366 118.245V51.4563L101.953 43.5638ZM109.978 118.245C109.977 119.056 109.669 119.834 109.123 120.408C108.577 120.982 107.837 121.304 107.064 121.305H55.988C55.2157 121.304 54.4753 120.982 53.9292 120.408C53.3831 119.834 53.0759 119.056 53.0749 118.245V47.0326C53.0757 46.3578 53.2883 45.7022 53.6798 45.1673C54.0713 44.6323 54.6198 44.248 55.2403 44.0739C55.4842 44.0057 55.7356 43.9714 55.988 43.9719H101.805L109.978 51.6379V118.245ZM54.2674 44.0739C53.7847 44.3835 53.3858 44.8182 53.109 45.3362C52.8322 45.8543 52.6867 46.4385 52.6865 47.0326V47.5427H53.0749V47.0326C53.0757 46.3578 53.2883 45.7022 53.6798 45.1673C54.0713 44.6323 54.6198 44.248 55.2403 44.0739H54.2674Z" fill="#38365E"/>
<path d="M54.2674 44.0739V43.0739H53.9743L53.7276 43.2322L54.2674 44.0739ZM52.6865 47.0326L51.6865 47.0323V47.0326H52.6865ZM52.6865 47.5427H51.6865V48.5427H52.6865V47.5427ZM53.0749 47.5427V48.5427H54.0749V47.5427H53.0749ZM53.0749 47.0326L52.0749 47.0314V47.0326H53.0749ZM55.2403 44.0739L55.5105 45.0368L55.2403 43.0739V44.0739ZM101.953 43.5638L102.637 42.8345L102.349 42.5638H101.953V43.5638ZM55.988 43.5638V42.5638L55.9868 42.5638L55.988 43.5638ZM52.6865 47.0326L51.6865 47.0315V47.0326H52.6865ZM52.6865 118.245L51.6865 118.245L51.6865 118.246L52.6865 118.245ZM55.988 121.713L55.9866 122.713H55.988V121.713ZM107.064 121.713L107.064 122.713L107.066 122.713L107.064 121.713ZM110.366 118.245L111.366 118.246V118.245H110.366ZM110.366 51.4563H111.366V51.0233L111.05 50.727L110.366 51.4563ZM109.978 118.245L110.978 118.246V118.245H109.978ZM107.064 121.305L107.064 122.305L107.066 122.305L107.064 121.305ZM55.988 121.305L55.9868 122.305H55.988V121.305ZM53.0749 118.245L52.0749 118.245L52.0749 118.246L53.0749 118.245ZM53.0749 47.0326L52.0749 47.0314V47.0326H53.0749ZM55.2403 44.0739L54.9707 43.111L54.9702 43.1111L55.2403 44.0739ZM55.988 43.9719L55.9858 44.9719H55.988V43.9719ZM101.805 43.9719L102.489 43.2426L102.201 42.9719H101.805V43.9719ZM109.978 51.6379H110.978V51.2049L110.662 50.9086L109.978 51.6379ZM54.2674 44.0739V43.0739H53.9743L53.7276 43.2322L54.2674 44.0739ZM52.6865 47.0326L51.6865 47.0323V47.0326H52.6865ZM52.6865 47.5427H51.6865V48.5427H52.6865V47.5427ZM53.0749 47.5427V48.5427H54.0749V47.5427H53.0749ZM53.0749 47.0326L52.0749 47.0314V47.0326H53.0749ZM55.2403 44.0739L55.5105 45.0368L55.2403 43.0739V44.0739ZM53.7276 43.2322C53.0974 43.6363 52.5823 44.2 52.227 44.865L53.991 45.8075C54.1894 45.4363 54.472 45.1307 54.8072 44.9157L53.7276 43.2322ZM52.227 44.865C51.8718 45.5297 51.6868 46.2758 51.6865 47.0323L53.6865 47.0329C53.6867 46.6011 53.7925 46.179 53.991 45.8075L52.227 44.865ZM51.6865 47.0326V47.5427H53.6865V47.0326H51.6865ZM52.6865 48.5427H53.0749V46.5427H52.6865V48.5427ZM54.0749 47.5427V47.0326H52.0749V47.5427H54.0749ZM54.0749 47.0338C54.0755 46.5669 54.2229 46.1184 54.4868 45.7579L52.8729 44.5767C52.3538 45.2859 52.076 46.1488 52.0749 47.0314L54.0749 47.0338ZM54.4868 45.7579C54.7502 45.398 55.1121 45.1485 55.5105 45.0368L54.9702 43.1111C54.1276 43.3476 53.3925 43.8667 52.8729 44.5767L54.4868 45.7579ZM55.2403 43.0739H54.2674V45.0739H55.2403V43.0739ZM101.953 42.5638H55.988V44.5638H101.953V42.5638ZM55.9868 42.5638C54.8303 42.5652 53.7322 43.049 52.9303 43.8916L54.379 45.2704C54.8149 44.8124 55.3951 44.5646 55.9893 44.5638L55.9868 42.5638ZM52.9303 43.8916C52.1299 44.7325 51.6878 45.8625 51.6865 47.0315L53.6865 47.0337C53.6873 46.3634 53.9415 45.7301 54.379 45.2704L52.9303 43.8916ZM51.6865 47.0326V118.245H53.6865V47.0326H51.6865ZM51.6865 118.246C51.6881 119.415 52.1303 120.545 52.9305 121.385L54.3792 120.007C53.9417 119.547 53.6874 118.914 53.6865 118.243L51.6865 118.246ZM52.9305 121.385C53.7324 122.228 54.8302 122.712 55.9866 122.713L55.9895 120.713C55.3954 120.713 54.8152 120.465 54.3792 120.007L52.9305 121.385ZM55.988 122.713H107.064V120.713H55.988V122.713ZM107.066 122.713C108.222 122.712 109.32 122.228 110.122 121.385L108.673 120.007C108.237 120.465 107.657 120.713 107.063 120.713L107.066 122.713ZM110.122 121.385C110.922 120.545 111.364 119.415 111.366 118.246L109.366 118.243C109.365 118.914 109.111 119.547 108.673 120.007L110.122 121.385ZM111.366 118.245V51.4563H109.366V118.245H111.366ZM111.05 50.727L102.637 42.8345L101.269 44.2931L109.682 52.1856L111.05 50.727ZM108.978 118.244C108.977 118.806 108.764 119.335 108.399 119.718L109.848 121.097C110.575 120.333 110.976 119.307 110.978 118.246L108.978 118.244ZM108.399 119.718C108.036 120.1 107.554 120.305 107.063 120.305L107.066 122.305C108.119 122.304 109.119 121.863 109.848 121.097L108.399 119.718ZM107.064 120.305H55.988V122.305H107.064V120.305ZM55.9893 120.305C55.4982 120.305 55.0167 120.1 54.6536 119.718L53.2048 121.097C53.934 121.863 54.9333 122.304 55.9868 122.305L55.9893 120.305ZM54.6536 119.718C54.2889 119.335 54.0756 118.806 54.0749 118.244L52.0749 118.246C52.0762 119.307 52.4773 120.333 53.2048 121.097L54.6536 119.718ZM54.0749 118.245V47.0326H52.0749V118.245H54.0749ZM54.0749 47.0338C54.0755 46.5669 54.2229 46.1184 54.4868 45.7579L52.8729 44.5767C52.3538 45.2859 52.076 46.1488 52.0749 47.0314L54.0749 47.0338ZM54.4868 45.7579C54.7501 45.398 55.1121 45.1485 55.5105 45.0368L54.9702 43.1111C54.1276 43.3476 53.3925 43.8667 52.8729 44.5767L54.4868 45.7579ZM55.5099 45.0369C55.6657 44.9933 55.8256 44.9716 55.9858 44.9719L55.9903 42.9719C55.6457 42.9712 55.3028 43.018 54.9707 43.111L55.5099 45.0369ZM55.988 44.9719H101.805V42.9719H55.988V44.9719ZM101.121 44.7013L109.293 52.3673L110.662 50.9086L102.489 43.2426L101.121 44.7013ZM108.978 51.6379V118.245H110.978V51.6379H108.978ZM53.7276 43.2322C53.0974 43.6363 52.5823 44.2 52.227 44.865L53.991 45.8075C54.1893 45.4363 54.472 45.1307 54.8072 44.9157L53.7276 43.2322ZM52.227 44.865C51.8718 45.5297 51.6868 46.2758 51.6865 47.0323L53.6865 47.0329C53.6867 46.6011 53.7925 46.179 53.991 45.8075L52.227 44.865ZM51.6865 47.0326V47.5427H53.6865V47.0326H51.6865ZM52.6865 48.5427H53.0749V46.5427H52.6865V48.5427ZM54.0749 47.5427V47.0326H52.0749V47.5427H54.0749ZM54.0749 47.0338C54.0755 46.5669 54.2229 46.1184 54.4868 45.7579L52.8729 44.5767C52.3538 45.2859 52.076 46.1488 52.0749 47.0314L54.0749 47.0338ZM54.4868 45.7579C54.7501 45.398 55.1121 45.1485 55.5105 45.0368L54.9702 43.1111C54.1276 43.3476 53.3925 43.8667 52.8729 44.5767L54.4868 45.7579ZM55.2403 43.0739H54.2674V45.0739H55.2403V43.0739Z" fill="#38365E" mask="url(#path-3-outside-1)"/>
<path d="M110.172 51.7257H104.928C104.053 51.7246 103.213 51.3588 102.595 50.7085C101.976 50.0582 101.627 49.1765 101.626 48.2569V43.7679C101.626 43.7138 101.647 43.6619 101.683 43.6236C101.72 43.5853 101.769 43.5638 101.821 43.5638C101.872 43.5638 101.922 43.5853 101.958 43.6236C101.994 43.6619 102.015 43.7138 102.015 43.7679V48.2569C102.016 49.0683 102.323 49.8463 102.869 50.4201C103.415 50.9939 104.156 51.3167 104.928 51.3176H110.172C110.223 51.3176 110.272 51.3391 110.309 51.3773C110.345 51.4156 110.366 51.4675 110.366 51.5216C110.366 51.5757 110.345 51.6276 110.309 51.6659C110.272 51.7042 110.223 51.7257 110.172 51.7257Z" fill="#3F3D56"/>
<path d="M103.674 65.2947H59.3945C58.9824 65.2947 58.5872 65.1228 58.2959 64.8166C58.0045 64.5105 57.8408 64.0953 57.8408 63.6624C57.8408 63.2294 58.0045 62.8142 58.2959 62.5081C58.5872 62.202 58.9824 62.03 59.3945 62.03H103.674C104.086 62.03 104.481 62.202 104.772 62.5081C105.064 62.8142 105.227 63.2294 105.227 63.6624C105.227 64.0953 105.064 64.5105 104.772 64.8166C104.481 65.1228 104.086 65.2947 103.674 65.2947Z" fill="#38365E"/>
<path d="M81.3399 58.3572H59.3945C58.9824 58.3572 58.5872 58.1852 58.2959 57.8791C58.0045 57.5729 57.8408 57.1577 57.8408 56.7248C57.8408 56.2919 58.0045 55.8767 58.2959 55.5705C58.5872 55.2644 58.9824 55.0924 59.3945 55.0924H81.3399C81.7519 55.0924 82.1471 55.2644 82.4385 55.5705C82.7298 55.8767 82.8935 56.2919 82.8935 56.7248C82.8935 57.1577 82.7298 57.5729 82.4385 57.8791C82.1471 58.1852 81.7519 58.3572 81.3399 58.3572Z" fill="#38365E"/>
<path d="M103.674 78.9658H59.3945C58.9824 78.9658 58.5872 78.7938 58.2959 78.4877C58.0045 78.1816 57.8408 77.7664 57.8408 77.3335C57.8408 76.9005 58.0045 76.4853 58.2959 76.1792C58.5872 75.8731 58.9824 75.7011 59.3945 75.7011H103.674C104.086 75.7011 104.481 75.8731 104.772 76.1792C105.064 76.4853 105.227 76.9005 105.227 77.3335C105.227 77.7664 105.064 78.1816 104.772 78.4877C104.481 78.7938 104.086 78.9658 103.674 78.9658Z" fill="#38365E"/>
<path d="M81.3399 72.0283H59.3945C58.9824 72.0283 58.5872 71.8563 58.2959 71.5502C58.0045 71.244 57.8408 70.8288 57.8408 70.3959C57.8408 69.963 58.0045 69.5478 58.2959 69.2416C58.5872 68.9355 58.9824 68.7635 59.3945 68.7635H81.3399C81.7519 68.7635 82.1471 68.9355 82.4385 69.2416C82.7298 69.5478 82.8935 69.963 82.8935 70.3959C82.8935 70.8288 82.7298 71.244 82.4385 71.5502C82.1471 71.8563 81.7519 72.0283 81.3399 72.0283Z" fill="#38365E"/>
<path d="M102.104 110.287H60.932C60.0824 110.286 59.2679 109.931 58.6672 109.3C58.0664 108.669 57.7285 107.813 57.7275 106.92V89.7803C57.7285 88.8877 58.0664 88.0319 58.6672 87.4007C59.2679 86.7695 60.0824 86.4145 60.932 86.4135H102.104C102.953 86.4145 103.768 86.7695 104.369 87.4007C104.969 88.0319 105.307 88.8877 105.308 89.7803V106.92C105.307 107.813 104.969 108.669 104.369 109.3C103.768 109.931 102.953 110.286 102.104 110.287Z" fill="#38365E"/>
</svg>
