<svg width="163" height="156" viewBox="0 0 163 156" fill="none" xmlns="http://www.w3.org/2000/svg">
<rect width="163" height="156" rx="20" fill="white" fill-opacity="0.11"/>
<ellipse cx="81.5" cy="78" rx="52.5" ry="55" fill="#6D30ED"/>
<path d="M108 59.2556C108 72.6516 81 102.494 81 102.494C81 102.494 54 72.6516 54 59.2556C54 52.8226 56.8446 46.6531 61.9081 42.1043C66.9716 37.5555 73.8392 35 81 35C88.1608 35 95.0284 37.5555 100.092 42.1043C105.155 46.6531 108 52.8226 108 59.2556V59.2556Z" fill="#38365E"/>
<path d="M96.9656 58.201C96.9656 61.0377 96.0293 63.8106 94.275 66.1692C92.5207 68.5278 90.0273 70.3661 87.11 71.4517C84.1927 72.5372 80.9827 72.8212 77.8857 72.2678C74.7888 71.7144 71.944 70.3484 69.7113 68.3426C67.4785 66.3368 65.958 63.7812 65.3419 60.9991C64.7259 58.2169 65.0421 55.3331 66.2504 52.7124C67.4588 50.0916 69.5051 47.8517 72.1306 46.2757C74.756 44.6997 77.8428 43.8586 81.0004 43.8586C83.096 43.8577 85.1713 44.2276 87.1078 44.9473C89.0442 45.6669 90.804 46.7222 92.2865 48.0528C93.769 49.3834 94.9452 50.9633 95.7481 52.7022C96.5509 54.4412 96.9646 56.3052 96.9656 58.1878V58.201Z" fill="white" fill-opacity="0.11"/>
<path d="M80.9449 63.8627C84.2298 63.8627 86.8927 61.4704 86.8927 58.5194C86.8927 55.5684 84.2298 53.1762 80.9449 53.1762C77.66 53.1762 74.9971 55.5684 74.9971 58.5194C74.9971 61.4704 77.66 63.8627 80.9449 63.8627Z" fill="#38365E"/>
<path d="M89.5769 70.7232C87.0129 72.1879 84.0373 72.9656 80.9988 72.9653C77.9603 72.9649 74.9849 72.1864 72.4214 70.7211C72.9545 69.0468 74.0802 67.5741 75.628 66.5258C77.1758 65.4775 79.0616 64.9105 81 64.9108C82.9385 64.911 84.8241 65.4784 86.3716 66.5271C87.9191 67.5758 89.0443 69.0488 89.5769 70.7232V70.7232Z" fill="#38365E"/>
<path d="M80.9999 120C85.0196 120 88.2782 117.073 88.2782 113.462C88.2782 109.85 85.0196 106.923 80.9999 106.923C76.9803 106.923 73.7217 109.85 73.7217 113.462C73.7217 117.073 76.9803 120 80.9999 120Z" fill="#38365E"/>
</svg>
